<?xml version="1.0" encoding="UTF-8"?>
<svg width="84px" height="60px" viewBox="0 0 84 60" version="1.1" xmlns="http://www.w3.org/2000/svg" xmlns:xlink="http://www.w3.org/1999/xlink">
    <!-- Generator: Sketch 63.1 (92452) - https://sketch.com -->
    <title>Slice 1</title>
    <desc>Created with Sketch.</desc>
    <g id="Page-1" stroke="none" stroke-width="1" fill="none" fill-rule="evenodd">
        <g id="noun_Email_1599330" fill="#000000" fill-rule="nonzero">
            <g id="Group" transform="translate(0.000000, 0.637820)">
                <path d="M7.9999998,0.36219 C3.60264,0.36219 -2.00000001e-07,3.96479 -2.00000001e-07,8.36219 L-2.00000001e-07,50.36219 C-2.00000001e-07,54.7596 3.60264,58.36219 7.9999998,58.36219 L75.9999998,58.36219 C80.39736,58.36219 83.9999998,54.7596 83.9999998,50.36219 L83.9999998,8.36219 C83.9999998,3.96479 80.39736,0.36219 75.9999998,0.36219 L7.9999998,0.36219 Z M8,4.36219 L76,4.36219 C76.58772,4.36219 77.12786,4.48959 77.625,4.70599 L44.84375,34.1747 C43.02426,35.8112 40.91036,35.8113 39.09375,34.1747 L6.375,4.70599 C6.87214,4.48959 7.41228,4.36219 8,4.36219 Z M4.03125,7.98719 L36.40625,37.1434 C39.58092,40.0036 44.35576,39.9996 47.53125,37.1434 L79.96875,7.98719 C79.98005,8.11299 79.99995,8.23279 79.99995,8.36219 L79.99995,50.3622 C79.99995,52.6127 78.2505,54.3622 75.99995,54.3622 L7.99995,54.3622 C5.7494,54.3622 3.99995,52.6127 3.99995,50.3622 L3.99995,8.36219 C3.99995,8.23279 4.01985,8.11299 4.03115,7.98719 L4.03125,7.98719 Z" id="Shape"></path>
            </g>
        </g>
    </g>
</svg>