<?xml version="1.0" encoding="UTF-8"?>
<svg width="17px" height="16px" viewBox="0 0 17 16" version="1.1" xmlns="http://www.w3.org/2000/svg" xmlns:xlink="http://www.w3.org/1999/xlink">
    <!-- Generator: Sketch 63.1 (92452) - https://sketch.com -->
    <title>phone</title>
    <desc>Created with Sketch.</desc>
    <g id="Page-1" stroke="none" stroke-width="1" fill="none" fill-rule="evenodd">
        <g id="noun_Phone_779209" fill="#000000" fill-rule="nonzero">
            <path d="M12.2,16 C11.7,16 11,15.9 10.2,15.6 C8.9,15.2 7.9,14.6 6.8,13.9 C5.6,13.1 4.4,11.9 4.4,11.9 L4.1,11.6 L4.1,11.6 L4,11.6 C3.8,11.4 2.8,10.3 2,9.2 C1.3,8 0.8,7 0.4,5.7 C-0.1,4.3 2.22044605e-16,3.3 0.1,2.8 C0.2,2.4 0.5,2 0.8,1.7 L2,0.5 C2.5,-1.11022302e-15 3.5,-0.3 4.4,0.6 L6.4,2.6 C6.8,3 7.2,4 6.4,4.9 L5.2,6.1 C5.3,6.3 5.5,6.7 5.7,7 C5.9,7.3 6.5,8.1 6.9,8.5 L6.9,8.5 L6.9,8.5 C7,8.6 7.1,8.7 7.3,8.9 L7.5,9 C7.9,9.4 8.7,10 9,10.2 C9.3,10.4 9.6,10.6 9.9,10.7 L11.1,9.5 C12.1,8.7 13,9.1 13.5,9.5 L15.5,11.5 C16.4,12.4 16,13.4 15.6,13.9 L14.4,15.1 C14.1,15.4 13.7,15.7 13.2,15.8 C12.9,15.9 12.6,16 12.2,16 Z M5.1,11.2 C5.1,11.2 6.3,12.3 7.4,13.1 C8.5,13.8 9.4,14.3 10.6,14.7 C11.8,15.1 12.6,15 12.9,14.9 C13.2,14.8 13.5,14.6 13.6,14.4 L14.8,13.2 C14.9,13.1 15.2,12.7 14.7,12.2 L12.7,10.2 C12.6,10.1 12.2,9.8 11.7,10.2 L10.4,11.5 C10.2,11.7 9.9,11.8 9.5,11.7 C9.3,11.6 8.7,11.4 8.3,11.1 C7.9,10.8 7.2,10.2 6.7,9.8 L6.6,9.7 C6.3,9.4 6.1,9.2 6.1,9.2 C5.7,8.8 5.1,8 4.8,7.6 C4.5,7.2 4.3,6.6 4.2,6.4 C4,6.1 4.2,5.7 4.3,5.5 L5.6,4.2 C6,3.7 5.7,3.4 5.6,3.3 L3.6,1.3 C3.2,0.9 2.8,1.1 2.6,1.2 L1.6,2.4 C1.5,2.5 1.2,2.8 1.1,3.1 C1,3.5 0.9,4.3 1.3,5.4 C1.7,6.6 2.2,7.5 2.9,8.6 C3.6,9.6 4.6,10.7 4.8,10.9 L5.1,11.2 L5.1,11.2 Z" id="Shape"></path>
        </g>
    </g>
</svg>